HIERARCHY
ROOT Hips
{
 OFFSET 0.000000 0.000000 0.000000
 CHANNELS 6 Xposition Yposition Zposition Yrotation Xrotation Zrotation
 JOINT Chest
 {
  OFFSET 0.000000 9.585900 0.002600
  CHANNELS 3 Yrotation Xrotation Zrotation
  JOINT Chest2
  {
   OFFSET 0.000000 9.601200 -0.005300
   CHANNELS 3 Yrotation Xrotation Zrotation
   JOINT Chest3
   {
    OFFSET 0.000000 9.561800 0.000000
    CHANNELS 3 Yrotation Xrotation Zrotation
    JOINT Chest4
    {
     OFFSET 0.000000 9.552100 0.000000
     CHANNELS 3 Yrotation Xrotation Zrotation
     JOINT Neck
     {
      OFFSET 0.000000 14.453000 0.000000
      CHANNELS 3 Yrotation Xrotation Zrotation
      JOINT Head
      {
       OFFSET 0.000000 8.936500 -0.011300
       CHANNELS 3 Yrotation Xrotation Zrotation
       End Site
       {
        OFFSET 0.000000 17.073600 -0.006000
       }
      }
     }
     JOINT RightCollar
     {
      OFFSET -2.921100 9.558500 0.000000
      CHANNELS 3 Yrotation Xrotation Zrotation
      JOINT RightShoulder
      {
       OFFSET -13.519700 0.000000 0.000000
       CHANNELS 3 Yrotation Xrotation Zrotation
       JOINT RightElbow
       {
        OFFSET 0.000000 -29.696600 0.000000
        CHANNELS 3 Yrotation Xrotation Zrotation
        JOINT RightWrist
        {
         OFFSET 0.000000 -24.004700 0.000000
         CHANNELS 3 Yrotation Xrotation Zrotation
         End Site
         {
          OFFSET 0.000000 -17.728500 0.000000
         }
        }
       }
      }
     }
     JOINT LeftCollar
     {
      OFFSET 2.921100 9.558500 0.000000
      CHANNELS 3 Yrotation Xrotation Zrotation
      JOINT LeftShoulder
      {
       OFFSET 13.519700 0.000000 0.000000
       CHANNELS 3 Yrotation Xrotation Zrotation
       JOINT LeftElbow
       {
        OFFSET 0.000000 -29.696600 0.000000
        CHANNELS 3 Yrotation Xrotation Zrotation
        JOINT LeftWrist
        {
         OFFSET 0.000000 -24.004700 0.000000
         CHANNELS 3 Yrotation Xrotation Zrotation
         End Site
         {
          OFFSET 0.000000 -17.728500 0.000000
         }
        }
       }
      }
     }
    }
   }
  }
 }
 JOINT RightHip
 {
  OFFSET -7.771700 -0.012900 -0.001300
  CHANNELS 3 Yrotation Xrotation Zrotation
  JOINT RightKnee
  {
   OFFSET 0.000000 -40.869800 0.001200
   CHANNELS 3 Yrotation Xrotation Zrotation
   JOINT RightAnkle
   {
    OFFSET 0.000000 -39.717900 0.002100
    CHANNELS 3 Yrotation Xrotation Zrotation
    JOINT RightToe
    {
     OFFSET 0.000000 -4.965400 11.033500
     CHANNELS 3 Yrotation Xrotation Zrotation
     End Site
     {
      OFFSET 0.000000 -1.423100 5.872300
     }
    }
   }
  }
 }
 JOINT LeftHip
 {
  OFFSET 7.771700 -0.012900 -0.001300
  CHANNELS 3 Yrotation Xrotation Zrotation
  JOINT LeftKnee
  {
   OFFSET 0.000000 -40.869800 0.001200
   CHANNELS 3 Yrotation Xrotation Zrotation
   JOINT LeftAnkle
   {
    OFFSET 0.000000 -39.717900 0.002100
    CHANNELS 3 Yrotation Xrotation Zrotation
    JOINT LeftToe
    {
     OFFSET 0.000000 -4.965400 11.033500
     CHANNELS 3 Yrotation Xrotation Zrotation
     End Site
     {
      OFFSET 0.000000 -1.423100 5.872300
     }
    }
   }
  }
 }
}
MOTION
Frames: 13
Frame Time: 0.008333
18.021331 49.947415 55.822004 173.160211 -33.459722 -7.169414 6.259241 19.635792 6.386391 0.732099 2.640041 0.587121 1.227825 4.274359 0.966611 5.408848 16.875458 4.504843 -1.745878 16.303376 1.005532 -3.591599 -5.541167 2.474207 -6.391066 -5.474402 -11.263951 8.714944 -3.055744 4.345370 53.366706 -81.719469 -62.854722 -1.144452 -11.166214 9.602445 -6.938943 -3.580619 2.456494 4.692892 -2.090927 0.937755 -111.992367 -67.912211 115.638734 10.061621 -0.396594 -26.671475 -0.651358 -46.421095 10.781013 -127.174587 83.798170 -115.317621 -0.698946 -14.595798 -3.508065 -0.248001 0.996665 -0.108090 -9.679568 -50.841225 17.934370 -148.407550 80.486004 -156.685580 0.699268 -16.087141 8.432879 -0.336448 -0.894224 -0.143743
18.020770 49.951709 55.832394 173.147156 -33.457844 -7.160580 6.259348 19.643906 6.385736 0.739948 2.633955 0.583456 1.222561 4.294735 0.970522 5.416272 16.912234 4.505829 -1.688295 16.343370 1.023142 -3.512677 -5.432115 2.492187 -6.382980 -5.501854 -11.315269 8.712408 -3.099480 4.146355 55.628519 -81.929109 -65.019475 -1.079716 -10.902086 10.327736 -6.954247 -3.638507 2.460207 4.567289 -2.142392 1.128774 -112.870678 -68.070272 116.302972 9.959717 -0.238635 -27.510522 -0.656379 -46.431380 10.798138 -127.052839 83.788838 -115.211409 -0.704842 -14.590348 -3.498142 -0.259133 0.991647 -0.113330 -9.669558 -50.846591 17.928008 -148.469211 80.505405 -156.738222 0.681243 -16.082262 8.420260 -0.326794 -0.885350 -0.139054
18.020017 49.957271 55.839393 173.130426 -33.468453 -7.149009 6.288685 19.671542 6.403257 0.728672 2.631029 0.576193 1.225682 4.303838 0.971424 5.416041 16.907379 4.500257 -1.625421 16.421721 1.048444 -3.445537 -5.324338 2.516986 -6.348696 -5.456216 -11.387735 8.683634 -3.167040 3.953849 58.008023 -82.124905 -67.298701 -1.003588 -10.646877 11.067918 -7.034122 -3.651526 2.480440 4.485589 -2.202651 1.287103 -113.713208 -68.214610 116.963864 9.854542 -0.085523 -28.368743 -0.650531 -46.428152 10.804575 -126.989099 83.784453 -115.157405 -0.699717 -14.584461 -3.494656 -0.263659 0.994247 -0.115690 -9.656936 -50.837299 17.919309 -148.509393 80.519223 -156.776074 0.678658 -16.080876 8.409966 -0.326704 -0.880973 -0.137108
18.018293 49.963942 55.842951 173.127258 -33.488395 -7.139150 6.313222 19.697272 6.413161 0.722753 2.638772 0.575559 1.261067 4.333903 0.986846 5.392528 16.902654 4.492025 -1.577131 16.474437 1.071683 -3.390086 -5.215060 2.546340 -6.338152 -5.472480 -11.409162 8.670959 -3.182550 3.703492 60.493101 -82.311227 -69.671126 -0.922481 -10.402305 11.813443 -7.181792 -3.696704 2.502489 4.445730 -2.263650 1.429036 -114.508277 -68.345790 117.602833 9.747828 0.062438 -29.277364 -0.641296 -46.410427 10.794381 -126.982588 83.784307 -115.153015 -0.701489 -14.588354 -3.492384 -0.270871 0.994053 -0.119116 -9.650927 -50.816421 17.904052 -148.533478 80.529023 -156.801927 0.671749 -16.076433 8.399336 -0.314538 -0.883642 -0.133683
18.019227 49.969391 55.847889 173.115030 -33.490409 -7.142896 6.340677 19.698912 6.433620 0.732357 2.648873 0.581872 1.275476 4.336382 0.991369 5.446859 16.934516 4.519765 -1.583992 16.508105 1.089927 -3.344826 -5.100645 2.576402 -6.376521 -5.505867 -11.420768 8.649699 -3.188247 3.428182 63.066642 -82.488007 -72.113402 -0.837966 -10.163945 12.553293 -7.285141 -3.753065 2.497626 4.309806 -2.350138 1.570978 -115.258234 -68.463978 118.210628 9.637945 0.199155 -30.242251 -0.639267 -46.410157 10.805823 -126.907227 83.786510 -115.078905 -0.673953 -14.588489 -3.492373 -0.279300 0.998612 -0.123364 -9.655529 -50.813860 17.920706 -148.528871 80.532750 -156.795624 0.670571 -16.081441 8.393908 -0.327847 -0.885698 -0.136882
18.019015 49.975367 55.849957 173.111981 -33.497624 -7.143399 6.385081 19.705351 6.464456 0.728651 2.654427 0.579577 1.279823 4.335381 0.997695 5.480555 16.941298 4.541772 -1.574350 16.568782 1.108700 -3.304943 -4.976072 2.604194 -6.389939 -5.507924 -11.417844 8.620287 -3.186733 3.129556 65.725072 -82.653411 -74.623624 -0.748328 -9.922388 13.278863 -7.422879 -3.779380 2.494527 4.234873 -2.452123 1.698527 -115.977611 -68.570656 118.781024 9.525427 0.312516 -31.236160 -0.631898 -46.403361 10.805271 -126.890042 83.790560 -115.062911 -0.660395 -14.595167 -3.485998 -0.296866 0.997119 -0.129729 -9.660157 -50.803084 17.927672 -148.516909 80.537497 -156.789188 0.668028 -16.088953 8.393496 -0.322817 -0.881559 -0.139543
18.018461 49.981263 55.850226 173.112085 -33.504349 -7.141788 6.416194 19.709247 6.486137 0.732962 2.660959 0.582877 1.285343 4.324475 1.000055 5.500337 16.936001 4.559049 -1.551780 16.645209 1.129441 -3.267856 -4.834201 2.632134 -6.381718 -5.484292 -11.396415 8.590967 -3.180086 2.811132 68.484735 -82.805049 -77.229891 -0.651512 -9.670277 13.989108 -7.529690 -3.783298 2.488604 4.153478 -2.574077 1.819216 -116.666650 -68.665190 119.311457 9.421107 0.396401 -32.231986 -0.626215 -46.396577 10.801603 -126.955338 83.805625 -115.125093 -0.682263 -14.602609 -3.483509 -0.291632 0.999597 -0.132034 -9.651314 -50.791453 17.919822 -148.530698 80.544262 -156.801397 0.661185 -16.107226 8.386106 -0.316802 -0.868966 -0.136112
18.019227 49.986900 55.849295 173.109155 -33.509548 -7.144059 6.428133 19.711959 6.496154 0.799796 2.638987 0.605191 1.254781 4.327176 0.991671 5.520438 16.922767 4.576513 -1.529640 16.732456 1.153202 -3.232243 -4.672178 2.665389 -6.373199 -5.429195 -11.354951 8.573177 -3.179332 2.477788 71.353686 -82.935617 -79.950935 -0.546003 -9.406855 14.689867 -7.625593 -3.768267 2.486419 4.069272 -2.711780 1.933153 -117.327868 -68.739868 119.800670 9.346260 0.459132 -33.191406 -0.624726 -46.390724 10.805492 -126.973072 83.807694 -115.139761 -0.677918 -14.611694 -3.487605 -0.295699 1.005666 -0.131030 -9.641297 -50.783066 17.916402 -148.568453 80.548488 -156.834753 0.666653 -16.126920 8.375870 -0.325953 -0.860177 -0.133008
18.020549 49.992080 55.846998 173.104162 -33.513550 -7.145595 6.473119 19.695623 6.524754 0.794075 2.637262 0.600953 1.268324 4.312534 0.994068 5.539191 16.904299 4.592072 -1.504810 16.826510 1.181014 -3.192780 -4.497533 2.705079 -6.363277 -5.342810 -11.291956 8.564756 -3.193286 2.135134 74.297796 -83.032028 -82.754107 -0.433884 -9.143084 15.394697 -7.692850 -3.747744 2.486122 3.972463 -2.857753 2.046292 -117.945458 -68.792896 120.225976 9.316650 0.503848 -34.078787 -0.619019 -46.386924 10.813504 -127.040942 83.821045 -115.201922 -0.705305 -14.624304 -3.492552 -0.284463 1.009230 -0.125824 -9.623992 -50.775859 17.913183 -148.582019 80.548900 -156.840660 0.659088 -16.149593 8.372833 -0.319029 -0.849157 -0.132971
18.022220 49.997034 55.842660 173.118986 -33.518742 -7.156799 6.505890 19.677417 6.547726 0.762181 2.650772 0.598242 1.301707 4.281023 0.994108 5.554605 16.883985 4.604706 -1.476492 16.920681 1.211256 -3.147718 -4.322606 2.748161 -6.346062 -5.231581 -11.211070 8.552377 -3.225237 1.790801 77.219068 -83.084548 -85.534472 -0.317853 -8.896873 16.112853 -7.751908 -3.697491 2.489602 3.901370 -3.043988 2.152413 -118.469636 -68.838243 120.560444 9.327478 0.524570 -34.907864 -0.630618 -46.385090 10.826295 -127.213272 83.830897 -115.367819 -0.756337 -14.626684 -3.504506 -0.260782 0.989861 -0.112266 -9.626614 -50.768659 17.910204 -148.600010 80.544806 -156.857824 0.673903 -16.169531 8.367387 -0.334448 -0.841882 -0.129565
18.025251 50.000794 55.838214 173.143758 -33.513794 -7.180419 6.567290 19.614911 6.583868 0.721243 2.670871 0.599975 1.305429 4.270391 0.995764 5.566023 16.862890 4.616180 -1.448743 17.007974 1.240744 -3.103689 -4.160382 2.790263 -6.324300 -5.100760 -11.121980 8.530839 -3.277232 1.452282 80.023528 -83.095576 -88.193297 -0.199451 -8.679638 16.851912 -7.782668 -3.647378 2.478129 3.834702 -3.245588 2.260489 -118.894585 -68.895110 120.803130 9.352745 0.530024 -35.675219 -0.663831 -46.387396 10.845858 -127.267648 83.828497 -115.423215 -0.754840 -14.624146 -3.508515 -0.261116 0.979730 -0.109494 -9.656723 -50.769481 17.926939 -148.617165 80.537641 -156.877695 0.684546 -16.192583 8.362468 -0.348792 -0.831578 -0.126721
18.026728 50.004274 55.831208 173.163681 -33.513616 -7.190057 6.580990 19.595347 6.593896 0.733774 2.656491 0.598320 1.304852 4.264980 1.002363 5.574967 16.842663 4.628601 -1.462126 17.073301 1.255661 -3.035054 -4.016075 2.829493 -6.300771 -4.958914 -11.034982 8.504684 -3.347753 1.128168 82.708584 -83.074620 -90.732949 -0.077478 -8.499249 17.626781 -7.809980 -3.592754 2.450557 3.781659 -3.464856 2.362770 -119.255303 -68.979067 120.975958 9.361448 0.535964 -36.354634 -0.683424 -46.386512 10.849697 -127.413393 83.829864 -115.567584 -0.770635 -14.632280 -3.516967 -0.258943 0.968516 -0.104120 -9.654154 -50.768016 17.912509 -148.662510 80.533587 -156.915499 0.682951 -16.215675 8.357628 -0.358463 -0.825318 -0.127900
18.026253 50.008335 55.820422 173.203432 -33.523641 -7.197117 6.554681 19.604107 6.583908 0.796376 2.615776 0.607030 1.274085 4.281778 1.005574 5.582976 16.825121 4.642673 -1.479384 17.125064 1.263556 -2.983192 -3.912212 2.872203 -6.274966 -4.816033 -10.951462 8.479652 -3.430005 0.825427 85.341104 -83.028501 -93.229588 0.054988 -8.358632 18.450247 -7.810866 -3.512243 2.395420 3.702565 -3.720993 2.461968 -119.576662 -69.101199 121.110328 9.347036 0.554296 -36.950046 -0.754705 -46.369762 10.862479 -127.669706 83.818419 -115.840347 -0.806492 -14.641150 -3.545749 -0.211115 0.938936 -0.088682 -9.644419 -50.756903 17.873499 -148.702496 80.526760 -156.947808 0.673722 -16.234916 8.349978 -0.357835 -0.823361 -0.122076
